# xmcd CD database file
#
# Track frame offsets:
#	150
#	15172
#	31087
#	47490
#	62180
#
# Disc length: 1020 seconds
#
# Revision: 2
# Processed by: cddbd v1.4b41PL1 Copyright (c) Steve Scherf et al.
# Submitted via: Feurio! 1.52 - http://www.feurio.com
#
DISCID=2e03fa05
DTITLE=Baha Men - Unbekannte CD #2E03FA059CBB255D
DYEAR=1900
DGENRE=
TTITLE0=Who let the dogs out
TTITLE1=Who let the dogs out Bryan Mix
TTITLE2=Who let the dogs out Crisqo Mix
TTITLE3=Who let the dogs out Pal Mixer
TTITLE4=Who let the dogs out Radio Mix
EXTD=
EXTT0=
EXTT1=
EXTT2=
EXTT3=
EXTT4=
PLAYORDER=
